<svg xmlns="http://www.w3.org/2000/svg" xmlns:xlink="http://www.w3.org/1999/xlink" width="200" zoomAndPan="magnify" viewBox="0 0 150 149.999998" height="200" preserveAspectRatio="xMidYMid meet" version="1.0"><defs><g/><clipPath id="1d04674910"><path d="M 34.734375 60 L 55 60 L 55 71 L 34.734375 71 Z M 34.734375 60 " clip-rule="nonzero"/></clipPath><clipPath id="f63ce42f89"><path d="M 55 20 L 115.410156 20 L 115.410156 90.304688 L 55 90.304688 Z M 55 20 " clip-rule="nonzero"/></clipPath><clipPath id="8396698746"><path d="M 91 10.890625 L 108 10.890625 L 108 28 L 91 28 Z M 91 10.890625 " clip-rule="nonzero"/></clipPath></defs><g clip-path="url(#1d04674910)"><path fill="#399b53" d="M 39.113281 60.015625 L 34.765625 67.089844 C 42.867188 65.8125 49.460938 66.90625 54.527344 70.386719 C 50.84375 65.496094 45.703125 62.035156 39.105469 60.015625 Z M 39.113281 60.015625 " fill-opacity="1" fill-rule="evenodd"/></g><path fill="#000000" d="M 35.535156 56.304688 C 44.957031 57.574219 52.269531 62.199219 57.46875 70.183594 C 56.167969 62.121094 52.085938 55.703125 45.207031 50.910156 Z M 35.535156 56.304688 " fill-opacity="1" fill-rule="evenodd"/><path fill="#399b53" d="M 40.300781 43.058594 C 53.148438 51.34375 60.105469 62.746094 61.183594 77.253906 C 63.332031 65.8125 60.125 55.558594 51.585938 46.492188 C 58.742188 44.4375 64.257812 39.578125 68.121094 31.917969 C 80.878906 54.132812 76.8125 71.882812 55.933594 85.175781 C 82.382812 76.011719 86.351562 48.074219 67.847656 23.226562 C 63.722656 37.03125 54.546875 43.640625 40.308594 43.058594 Z M 40.300781 43.058594 " fill-opacity="1" fill-rule="evenodd"/><g clip-path="url(#f63ce42f89)"><path fill="#000000" d="M 71.984375 20.148438 C 94.015625 48.027344 87.007812 79.609375 55.164062 90.089844 C 88.550781 88.15625 108.566406 66.828125 115.226562 26.101562 C 106.441406 38.011719 92.023438 36.027344 71.984375 20.148438 Z M 71.984375 20.148438 " fill-opacity="1" fill-rule="evenodd"/></g><g clip-path="url(#8396698746)"><path fill="#000000" d="M 99.523438 27.007812 C 103.960938 27.007812 107.582031 23.390625 107.582031 18.945312 C 107.582031 14.507812 103.964844 10.882812 99.523438 10.882812 C 95.085938 10.882812 91.460938 14.5 91.460938 18.945312 C 91.460938 23.382812 95.085938 27.007812 99.523438 27.007812 Z M 99.523438 27.007812 " fill-opacity="1" fill-rule="evenodd"/></g><path fill="#399b53" d="M 68.371094 53.089844 C 68.632812 53.546875 68.496094 54 67.945312 54.441406 L 66.914062 52.648438 C 67.335938 52.578125 67.65625 52.578125 67.867188 52.644531 C 68.078125 52.714844 68.246094 52.859375 68.378906 53.082031 Z M 64.425781 51.125 C 64 51.199219 63.691406 51.199219 63.488281 51.125 C 63.285156 51.046875 63.125 50.917969 63.015625 50.71875 C 62.898438 50.515625 62.863281 50.300781 62.921875 50.074219 C 62.984375 49.851562 63.148438 49.628906 63.433594 49.40625 L 64.433594 51.132812 Z M 70.183594 51.914062 C 69.769531 51.199219 69.21875 50.753906 68.53125 50.574219 C 67.839844 50.398438 66.933594 50.457031 65.8125 50.753906 L 64.695312 48.820312 C 65.003906 48.730469 65.332031 48.675781 65.675781 48.65625 C 66.015625 48.636719 66.363281 48.636719 66.71875 48.664062 L 66.710938 46.675781 C 66.21875 46.628906 65.734375 46.640625 65.253906 46.707031 C 64.773438 46.773438 64.289062 46.90625 63.785156 47.101562 L 63.34375 46.335938 L 62.011719 47.101562 L 62.4375 47.84375 C 62.0625 48.121094 61.75 48.414062 61.492188 48.742188 C 61.234375 49.066406 61.050781 49.40625 60.949219 49.761719 C 60.835938 50.117188 60.804688 50.46875 60.84375 50.835938 C 60.882812 51.199219 61.007812 51.558594 61.210938 51.921875 C 61.425781 52.292969 61.675781 52.589844 61.953125 52.8125 C 62.234375 53.03125 62.550781 53.179688 62.898438 53.265625 C 63.246094 53.351562 63.640625 53.371094 64.070312 53.324219 C 64.503906 53.285156 64.992188 53.195312 65.53125 53.054688 L 66.703125 55.089844 C 66.277344 55.234375 65.851562 55.316406 65.417969 55.328125 C 64.992188 55.339844 64.523438 55.320312 64.019531 55.253906 L 63.863281 57.289062 C 64.472656 57.371094 65.101562 57.363281 65.734375 57.269531 C 66.371094 57.179688 66.988281 57.015625 67.578125 56.757812 L 68.324219 58.050781 L 69.660156 57.285156 L 68.929688 56.015625 C 69.316406 55.742188 69.632812 55.433594 69.886719 55.105469 C 70.144531 54.777344 70.320312 54.433594 70.433594 54.082031 C 70.546875 53.726562 70.578125 53.371094 70.546875 53.003906 C 70.511719 52.636719 70.386719 52.273438 70.183594 51.921875 Z M 70.183594 51.914062 " fill-opacity="1" fill-rule="evenodd"/><g fill="#399b53" fill-opacity="1"><g transform="translate(3.963743, 113.492361)"><g><path d="M 13.953125 0 L 13.21875 -9.203125 L 13.125 -9.203125 L 9.953125 -0.09375 L 7.84375 -0.09375 L 4.671875 -9.203125 L 4.578125 -9.203125 L 3.84375 0 L 0.296875 0 L 1.6875 -15.515625 L 5.453125 -15.515625 L 8.890625 -6.5625 L 12.34375 -15.515625 L 16.109375 -15.515625 L 17.5 0 Z M 13.953125 0 "/></g></g></g><g fill="#399b53" fill-opacity="1"><g transform="translate(21.381105, 113.492361)"><g><path d="M 2.046875 -1.140625 C 0.972656 -2.097656 0.4375 -3.320312 0.4375 -4.8125 C 0.4375 -6.300781 0.992188 -7.523438 2.109375 -8.484375 C 3.222656 -9.453125 4.601562 -9.9375 6.25 -9.9375 C 7.863281 -9.9375 9.222656 -9.453125 10.328125 -8.484375 C 11.441406 -7.515625 12 -6.289062 12 -4.8125 C 12 -3.332031 11.457031 -2.113281 10.375 -1.15625 C 9.289062 -0.195312 7.914062 0.28125 6.25 0.28125 C 4.519531 0.28125 3.117188 -0.191406 2.046875 -1.140625 Z M 4.609375 -6.453125 C 4.179688 -6.023438 3.96875 -5.476562 3.96875 -4.8125 C 3.96875 -4.144531 4.175781 -3.601562 4.59375 -3.1875 C 5.007812 -2.769531 5.554688 -2.5625 6.234375 -2.5625 C 6.878906 -2.5625 7.410156 -2.773438 7.828125 -3.203125 C 8.253906 -3.628906 8.46875 -4.164062 8.46875 -4.8125 C 8.46875 -5.476562 8.25 -6.023438 7.8125 -6.453125 C 7.382812 -6.878906 6.859375 -7.09375 6.234375 -7.09375 C 5.585938 -7.09375 5.046875 -6.878906 4.609375 -6.453125 Z M 4.609375 -6.453125 "/></g></g></g><g fill="#399b53" fill-opacity="1"><g transform="translate(33.437722, 113.492361)"><g><path d="M 1.125 0 L 1.125 -9.65625 L 4.453125 -9.65625 L 4.453125 -8.640625 L 4.5 -8.640625 C 5.363281 -9.503906 6.285156 -9.9375 7.265625 -9.9375 C 7.734375 -9.9375 8.203125 -9.875 8.671875 -9.75 C 9.148438 -9.625 9.601562 -9.425781 10.03125 -9.15625 C 10.46875 -8.894531 10.820312 -8.519531 11.09375 -8.03125 C 11.363281 -7.550781 11.5 -6.992188 11.5 -6.359375 L 11.5 0 L 8.171875 0 L 8.171875 -5.453125 C 8.171875 -5.953125 8.007812 -6.390625 7.6875 -6.765625 C 7.363281 -7.148438 6.945312 -7.34375 6.4375 -7.34375 C 5.9375 -7.34375 5.476562 -7.144531 5.0625 -6.75 C 4.65625 -6.363281 4.453125 -5.929688 4.453125 -5.453125 L 4.453125 0 Z M 1.125 0 "/></g></g></g><g fill="#399b53" fill-opacity="1"><g transform="translate(45.494342, 113.492361)"><g><path d="M 10.890625 -4.359375 L 3.890625 -4.359375 C 3.890625 -3.679688 4.109375 -3.179688 4.546875 -2.859375 C 4.992188 -2.535156 5.472656 -2.375 5.984375 -2.375 C 6.523438 -2.375 6.953125 -2.441406 7.265625 -2.578125 C 7.578125 -2.722656 7.929688 -3.007812 8.328125 -3.4375 L 10.734375 -2.234375 C 9.734375 -0.554688 8.066406 0.28125 5.734375 0.28125 C 4.285156 0.28125 3.039062 -0.210938 2 -1.203125 C 0.957031 -2.203125 0.4375 -3.40625 0.4375 -4.8125 C 0.4375 -6.21875 0.957031 -7.421875 2 -8.421875 C 3.039062 -9.429688 4.285156 -9.9375 5.734375 -9.9375 C 7.265625 -9.9375 8.507812 -9.492188 9.46875 -8.609375 C 10.425781 -7.722656 10.90625 -6.457031 10.90625 -4.8125 C 10.90625 -4.59375 10.898438 -4.441406 10.890625 -4.359375 Z M 3.984375 -6.203125 L 7.65625 -6.203125 C 7.582031 -6.703125 7.382812 -7.085938 7.0625 -7.359375 C 6.738281 -7.628906 6.328125 -7.765625 5.828125 -7.765625 C 5.273438 -7.765625 4.835938 -7.617188 4.515625 -7.328125 C 4.191406 -7.046875 4.015625 -6.671875 3.984375 -6.203125 Z M 3.984375 -6.203125 "/></g></g></g><g fill="#399b53" fill-opacity="1"><g transform="translate(56.460009, 113.492361)"><g><path d="M 8.453125 -9.65625 L 12.28125 -9.65625 L 4.703125 4.890625 L 0.859375 4.890625 L 4.1875 -1.5 L -0.375 -9.65625 L 3.46875 -9.65625 L 6.15625 -4.703125 Z M 8.453125 -9.65625 "/></g></g></g><g fill="#000000" fill-opacity="1"><g transform="translate(67.995078, 113.492361)"><g/></g></g><g fill="#000000" fill-opacity="1"><g transform="translate(72.75358, 113.492361)"><g><path d="M 0.15625 -12.421875 L 0.15625 -15.515625 L 11.0625 -15.515625 L 11.0625 -12.421875 L 7.375 -12.421875 L 7.375 0 L 3.84375 0 L 3.84375 -12.421875 Z M 0.15625 -12.421875 "/></g></g></g><g fill="#000000" fill-opacity="1"><g transform="translate(83.587572, 113.492361)"><g><path d="M 1.125 0 L 1.125 -9.65625 L 4.453125 -9.65625 L 4.453125 -8.265625 L 4.5 -8.265625 C 4.519531 -8.304688 4.554688 -8.363281 4.609375 -8.4375 C 4.671875 -8.519531 4.796875 -8.65625 4.984375 -8.84375 C 5.171875 -9.03125 5.367188 -9.195312 5.578125 -9.34375 C 5.796875 -9.5 6.070312 -9.632812 6.40625 -9.75 C 6.75 -9.875 7.097656 -9.9375 7.453125 -9.9375 C 7.816406 -9.9375 8.171875 -9.882812 8.515625 -9.78125 C 8.867188 -9.675781 9.128906 -9.578125 9.296875 -9.484375 L 9.5625 -9.328125 L 8.171875 -6.515625 C 7.753906 -6.859375 7.175781 -7.03125 6.4375 -7.03125 C 6.03125 -7.03125 5.679688 -6.941406 5.390625 -6.765625 C 5.109375 -6.597656 4.90625 -6.382812 4.78125 -6.125 C 4.664062 -5.875 4.582031 -5.660156 4.53125 -5.484375 C 4.476562 -5.316406 4.453125 -5.179688 4.453125 -5.078125 L 4.453125 0 Z M 1.125 0 "/></g></g></g><g fill="#000000" fill-opacity="1"><g transform="translate(92.578228, 113.492361)"><g><path d="M 1.78125 -1.1875 C 0.882812 -2.175781 0.4375 -3.382812 0.4375 -4.8125 C 0.4375 -6.238281 0.882812 -7.445312 1.78125 -8.4375 C 2.6875 -9.4375 3.835938 -9.9375 5.234375 -9.9375 C 6.515625 -9.9375 7.566406 -9.535156 8.390625 -8.734375 L 8.390625 -9.65625 L 11.71875 -9.65625 L 11.71875 0 L 8.421875 0 L 8.421875 -1.09375 L 8.390625 -1.09375 C 7.566406 -0.175781 6.515625 0.28125 5.234375 0.28125 C 3.835938 0.28125 2.6875 -0.207031 1.78125 -1.1875 Z M 4.609375 -6.453125 C 4.179688 -6.023438 3.96875 -5.476562 3.96875 -4.8125 C 3.96875 -4.144531 4.175781 -3.601562 4.59375 -3.1875 C 5.007812 -2.769531 5.554688 -2.5625 6.234375 -2.5625 C 6.878906 -2.5625 7.410156 -2.773438 7.828125 -3.203125 C 8.253906 -3.628906 8.46875 -4.164062 8.46875 -4.8125 C 8.46875 -5.476562 8.25 -6.023438 7.8125 -6.453125 C 7.382812 -6.878906 6.859375 -7.09375 6.234375 -7.09375 C 5.585938 -7.09375 5.046875 -6.878906 4.609375 -6.453125 Z M 4.609375 -6.453125 "/></g></g></g><g fill="#000000" fill-opacity="1"><g transform="translate(105.048671, 113.492361)"><g><path d="M 6.265625 -7.203125 C 5.640625 -7.203125 5.097656 -6.96875 4.640625 -6.5 C 4.191406 -6.039062 3.96875 -5.484375 3.96875 -4.828125 C 3.96875 -4.171875 4.191406 -3.609375 4.640625 -3.140625 C 5.097656 -2.679688 5.640625 -2.453125 6.265625 -2.453125 C 6.566406 -2.453125 6.851562 -2.488281 7.125 -2.5625 C 7.394531 -2.632812 7.59375 -2.707031 7.71875 -2.78125 L 7.875 -2.890625 L 9.015625 -0.578125 C 8.921875 -0.515625 8.796875 -0.4375 8.640625 -0.34375 C 8.484375 -0.25 8.125 -0.125 7.5625 0.03125 C 7.007812 0.195312 6.414062 0.28125 5.78125 0.28125 C 4.363281 0.28125 3.117188 -0.210938 2.046875 -1.203125 C 0.972656 -2.203125 0.4375 -3.398438 0.4375 -4.796875 C 0.4375 -6.203125 0.972656 -7.410156 2.046875 -8.421875 C 3.117188 -9.429688 4.363281 -9.9375 5.78125 -9.9375 C 6.414062 -9.9375 7.003906 -9.859375 7.546875 -9.703125 C 8.085938 -9.554688 8.46875 -9.40625 8.6875 -9.25 L 9.015625 -9.03125 L 7.875 -6.75 C 7.46875 -7.050781 6.929688 -7.203125 6.265625 -7.203125 Z M 6.265625 -7.203125 "/></g></g></g><g fill="#000000" fill-opacity="1"><g transform="translate(113.907666, 113.492361)"><g><path d="M 12.15625 -9.65625 L 7.5625 -5.046875 L 12.609375 0 L 8.3125 0 L 4.453125 -3.859375 L 4.453125 0 L 1.125 0 L 1.125 -16.171875 L 4.453125 -16.171875 L 4.453125 -6.28125 L 7.828125 -9.65625 Z M 12.15625 -9.65625 "/></g></g></g><g fill="#000000" fill-opacity="1"><g transform="translate(125.682153, 113.492361)"><g><path d="M 10.890625 -4.359375 L 3.890625 -4.359375 C 3.890625 -3.679688 4.109375 -3.179688 4.546875 -2.859375 C 4.992188 -2.535156 5.472656 -2.375 5.984375 -2.375 C 6.523438 -2.375 6.953125 -2.441406 7.265625 -2.578125 C 7.578125 -2.722656 7.929688 -3.007812 8.328125 -3.4375 L 10.734375 -2.234375 C 9.734375 -0.554688 8.066406 0.28125 5.734375 0.28125 C 4.285156 0.28125 3.039062 -0.210938 2 -1.203125 C 0.957031 -2.203125 0.4375 -3.40625 0.4375 -4.8125 C 0.4375 -6.21875 0.957031 -7.421875 2 -8.421875 C 3.039062 -9.429688 4.285156 -9.9375 5.734375 -9.9375 C 7.265625 -9.9375 8.507812 -9.492188 9.46875 -8.609375 C 10.425781 -7.722656 10.90625 -6.457031 10.90625 -4.8125 C 10.90625 -4.59375 10.898438 -4.441406 10.890625 -4.359375 Z M 3.984375 -6.203125 L 7.65625 -6.203125 C 7.582031 -6.703125 7.382812 -7.085938 7.0625 -7.359375 C 6.738281 -7.628906 6.328125 -7.765625 5.828125 -7.765625 C 5.273438 -7.765625 4.835938 -7.617188 4.515625 -7.328125 C 4.191406 -7.046875 4.015625 -6.671875 3.984375 -6.203125 Z M 3.984375 -6.203125 "/></g></g></g><g fill="#000000" fill-opacity="1"><g transform="translate(136.64782, 113.492361)"><g><path d="M 1.125 0 L 1.125 -9.65625 L 4.453125 -9.65625 L 4.453125 -8.265625 L 4.5 -8.265625 C 4.519531 -8.304688 4.554688 -8.363281 4.609375 -8.4375 C 4.671875 -8.519531 4.796875 -8.65625 4.984375 -8.84375 C 5.171875 -9.03125 5.367188 -9.195312 5.578125 -9.34375 C 5.796875 -9.5 6.070312 -9.632812 6.40625 -9.75 C 6.75 -9.875 7.097656 -9.9375 7.453125 -9.9375 C 7.816406 -9.9375 8.171875 -9.882812 8.515625 -9.78125 C 8.867188 -9.675781 9.128906 -9.578125 9.296875 -9.484375 L 9.5625 -9.328125 L 8.171875 -6.515625 C 7.753906 -6.859375 7.175781 -7.03125 6.4375 -7.03125 C 6.03125 -7.03125 5.679688 -6.941406 5.390625 -6.765625 C 5.109375 -6.597656 4.90625 -6.382812 4.78125 -6.125 C 4.664062 -5.875 4.582031 -5.660156 4.53125 -5.484375 C 4.476562 -5.316406 4.453125 -5.179688 4.453125 -5.078125 L 4.453125 0 Z M 1.125 0 "/></g></g></g></svg>