<svg xmlns="http://www.w3.org/2000/svg" xmlns:xlink="http://www.w3.org/1999/xlink" width="200" zoomAndPan="magnify" viewBox="0 0 150 149.999998" height="200" preserveAspectRatio="xMidYMid meet" version="1.0"><defs><g/><clipPath id="d6abc2a84a"><path d="M 0 5.523438 L 150 5.523438 L 150 144.476562 L 0 144.476562 Z M 0 5.523438 " clip-rule="nonzero"/></clipPath><clipPath id="190dea3ee3"><path d="M 6.75 5.523438 L 143.25 5.523438 C 146.976562 5.523438 150 8.542969 150 12.273438 L 150 137.726562 C 150 141.457031 146.976562 144.476562 143.25 144.476562 L 6.75 144.476562 C 3.023438 144.476562 0 141.457031 0 137.726562 L 0 12.273438 C 0 8.542969 3.023438 5.523438 6.75 5.523438 Z M 6.75 5.523438 " clip-rule="nonzero"/></clipPath></defs><g clip-path="url(#d6abc2a84a)"><g clip-path="url(#190dea3ee3)"><path fill="#ffffff" d="M 0 5.523438 L 150 5.523438 L 150 144.476562 L 0 144.476562 Z M 0 5.523438 " fill-opacity="1" fill-rule="nonzero"/></g></g><g fill="#399b53" fill-opacity="1"><g transform="translate(1.440108, 110.907647)"><g><path d="M 71.703125 0 L 67.921875 -47.25 L 67.4375 -47.25 L 51.109375 -0.484375 L 40.296875 -0.484375 L 23.96875 -47.25 L 23.484375 -47.25 L 19.71875 0 L 1.546875 0 L 8.703125 -79.71875 L 28.015625 -79.71875 L 45.703125 -33.71875 L 63.390625 -79.71875 L 82.71875 -79.71875 L 89.859375 0 Z M 71.703125 0 "/></g></g></g><g fill="#000000" fill-opacity="1"><g transform="translate(90.907544, 110.907647)"><g><path d="M 0.765625 -63.765625 L 0.765625 -79.71875 L 56.8125 -79.71875 L 56.8125 -63.765625 L 37.875 -63.765625 L 37.875 0 L 19.71875 0 L 19.71875 -63.765625 Z M 0.765625 -63.765625 "/></g></g></g></svg>